# xmcd CD database file
#
# Track frame offsets:
#	150
#	20438
#	32015
#	50023
#	72781
#	84346
#	103660
#	118435
#	136409
#	151860
#	163015
#	177664
#	192707
#	206412
#	220214
#	233979
#	242757
#	253632
#	266664
#	275935
#	291867
#
# Disc length: 4093 seconds
#
# Revision: 1
# Processed by: cddbd v1.5.2PL0 Copyright (c) Steve Scherf et al.
# Submitted via: CDex 1.70beta2
#
DISCID=470ffb15
DTITLE=Haggard,Merle - Out Among The Stars and A Friend In California
DYEAR=2010
DGENRE=Country
TTITLE0=Out Among The Stars
TTITLE1=My Life´s Been Grand
TTITLE2=Love Keeps Hangin´ On
TTITLE3=Why Can´t I Cry
TTITLE4=Love Don´t Hurt Everytime
TTITLE5=Pennies From Heaven
TTITLE6=Tell Me Something About Tulsa
TTITLE7=The Show´s Almost Over
TTITLE8=Bleachers
TTITLE9=Susie
TTITLE10=Almost Persuaded
TTITLE11=A Friend In California
TTITLE12=This Time I Really Do
TTITLE13=This Cold War With You
TTITLE14=I Had A Beautiful Time
TTITLE15=Texas
TTITLE16=The Okie From Muskogee´s Comin´ Home
TTITLE17=Mama´s Prayer
TTITLE18=Silverthorn Mountain
TTITLE19=This Song Is For You
TTITLE20=Thank You For Keeping My House
EXTD=YEAR: 2010
EXTT0=
EXTT1=
EXTT2=
EXTT3=
EXTT4=
EXTT5=
EXTT6=
EXTT7=
EXTT8=
EXTT9=
EXTT10=
EXTT11=
EXTT12=
EXTT13=
EXTT14=
EXTT15=
EXTT16=
EXTT17=
EXTT18=
EXTT19=
EXTT20=
PLAYORDER=
